<mxfile host="app.diagrams.net" modified="2024-03-30T02:52:31.235Z" agent="Mozilla/5.0 (Windows NT 10.0; Win64; x64) AppleWebKit/537.36 (KHTML, like Gecko) Chrome/121.0.0.0 Safari/537.36 OPR/107.0.0.0" etag="pgJa5DaOg_ReX15k4V89" version="24.2.1" type="device">
  <diagram name="Page-1" id="e7e014a7-5840-1c2e-5031-d8a46d1fe8dd">
    <mxGraphModel dx="1393" dy="804" grid="1" gridSize="10" guides="1" tooltips="1" connect="1" arrows="1" fold="1" page="1" pageScale="1" pageWidth="1169" pageHeight="826" background="none" math="0" shadow="0">
      <root>
        <mxCell id="0" />
        <mxCell id="1" parent="0" />
        <mxCell id="2" value="Пользователь" style="swimlane;whiteSpace=wrap" parent="1" vertex="1">
          <mxGeometry x="200" y="120" width="200" height="520" as="geometry" />
        </mxCell>
        <mxCell id="5" value="" style="ellipse;shape=startState;fillColor=#000000;strokeColor=#ff0000;" parent="2" vertex="1">
          <mxGeometry x="85" y="40" width="30" height="30" as="geometry" />
        </mxCell>
        <mxCell id="6" value="" style="edgeStyle=elbowEdgeStyle;elbow=horizontal;verticalAlign=bottom;endArrow=open;endSize=8;strokeColor=#FF0000;endFill=1;rounded=0" parent="2" source="5" target="7" edge="1">
          <mxGeometry x="100" y="40" as="geometry">
            <mxPoint x="115" y="110" as="targetPoint" />
          </mxGeometry>
        </mxCell>
        <mxCell id="7" value="Ввод данных" style="" parent="2" vertex="1">
          <mxGeometry x="40" y="110" width="120" height="50" as="geometry" />
        </mxCell>
        <mxCell id="3" value="Модуль проверки текстовых данных" style="swimlane;whiteSpace=wrap" parent="1" vertex="1">
          <mxGeometry x="400" y="120" width="360" height="520" as="geometry" />
        </mxCell>
        <mxCell id="w0B7XHgW6XZ4lFsPvZE_-43" value="" style="edgeStyle=orthogonalEdgeStyle;shape=connector;rounded=0;orthogonalLoop=1;jettySize=auto;html=1;labelBackgroundColor=default;strokeColor=#FF0000;fontFamily=Helvetica;fontSize=11;fontColor=default;endArrow=open;endFill=1;exitX=0;exitY=0.5;exitDx=0;exitDy=0;" parent="3" source="21" target="w0B7XHgW6XZ4lFsPvZE_-44" edge="1">
          <mxGeometry relative="1" as="geometry">
            <mxPoint x="-35" y="229" as="targetPoint" />
          </mxGeometry>
        </mxCell>
        <mxCell id="w0B7XHgW6XZ4lFsPvZE_-47" value="Да" style="edgeLabel;html=1;align=center;verticalAlign=middle;resizable=0;points=[];fontSize=11;fontFamily=Helvetica;fontColor=default;" parent="w0B7XHgW6XZ4lFsPvZE_-43" vertex="1" connectable="0">
          <mxGeometry x="0.2227" y="1" relative="1" as="geometry">
            <mxPoint as="offset" />
          </mxGeometry>
        </mxCell>
        <mxCell id="w0B7XHgW6XZ4lFsPvZE_-49" value="Нет" style="edgeLabel;html=1;align=center;verticalAlign=middle;resizable=0;points=[];fontSize=11;fontFamily=Helvetica;fontColor=default;" parent="w0B7XHgW6XZ4lFsPvZE_-43" vertex="1" connectable="0">
          <mxGeometry x="0.2227" y="1" relative="1" as="geometry">
            <mxPoint as="offset" />
          </mxGeometry>
        </mxCell>
        <mxCell id="w0B7XHgW6XZ4lFsPvZE_-46" style="edgeStyle=orthogonalEdgeStyle;shape=connector;rounded=0;orthogonalLoop=1;jettySize=auto;html=1;exitX=1;exitY=0.5;exitDx=0;exitDy=0;labelBackgroundColor=default;strokeColor=#FF0000;fontFamily=Helvetica;fontSize=11;fontColor=default;endArrow=open;endFill=1;" parent="3" source="21" target="w0B7XHgW6XZ4lFsPvZE_-45" edge="1">
          <mxGeometry relative="1" as="geometry" />
        </mxCell>
        <mxCell id="w0B7XHgW6XZ4lFsPvZE_-52" value="Да" style="edgeLabel;html=1;align=center;verticalAlign=middle;resizable=0;points=[];fontSize=11;fontFamily=Helvetica;fontColor=default;" parent="w0B7XHgW6XZ4lFsPvZE_-46" vertex="1" connectable="0">
          <mxGeometry x="0.2381" relative="1" as="geometry">
            <mxPoint as="offset" />
          </mxGeometry>
        </mxCell>
        <mxCell id="21" value="Данные проходят&#xa;проверку?" style="rhombus;fillColor=#ffffc0;strokeColor=#ff0000;" parent="3" vertex="1">
          <mxGeometry x="97.5" y="200" width="165" height="78" as="geometry" />
        </mxCell>
        <mxCell id="w0B7XHgW6XZ4lFsPvZE_-57" style="edgeStyle=orthogonalEdgeStyle;shape=connector;rounded=0;orthogonalLoop=1;jettySize=auto;html=1;entryX=0.25;entryY=0.5;entryDx=0;entryDy=0;entryPerimeter=0;labelBackgroundColor=default;strokeColor=#FF0000;fontFamily=Helvetica;fontSize=11;fontColor=default;endArrow=open;endFill=1;" parent="3" source="w0B7XHgW6XZ4lFsPvZE_-44" target="w0B7XHgW6XZ4lFsPvZE_-54" edge="1">
          <mxGeometry relative="1" as="geometry" />
        </mxCell>
        <mxCell id="w0B7XHgW6XZ4lFsPvZE_-44" value="Отобразить &quot;Данные&#xa;введены неверно&quot;" style="" parent="3" vertex="1">
          <mxGeometry x="10" y="320" width="120" height="50" as="geometry" />
        </mxCell>
        <mxCell id="w0B7XHgW6XZ4lFsPvZE_-56" style="edgeStyle=orthogonalEdgeStyle;shape=connector;rounded=0;orthogonalLoop=1;jettySize=auto;html=1;entryX=0.75;entryY=0.5;entryDx=0;entryDy=0;entryPerimeter=0;labelBackgroundColor=default;strokeColor=#FF0000;fontFamily=Helvetica;fontSize=11;fontColor=default;endArrow=open;endFill=1;" parent="3" source="w0B7XHgW6XZ4lFsPvZE_-45" target="w0B7XHgW6XZ4lFsPvZE_-54" edge="1">
          <mxGeometry relative="1" as="geometry" />
        </mxCell>
        <mxCell id="w0B7XHgW6XZ4lFsPvZE_-45" value="Передать на&#xa;сохранение данных" style="" parent="3" vertex="1">
          <mxGeometry x="230" y="320" width="120" height="50" as="geometry" />
        </mxCell>
        <mxCell id="w0B7XHgW6XZ4lFsPvZE_-53" value="" style="ellipse;html=1;shape=endState;fillColor=#000000;strokeColor=#ff0000;fontFamily=Helvetica;fontSize=11;fontColor=default;" parent="3" vertex="1">
          <mxGeometry x="165" y="470" width="30" height="30" as="geometry" />
        </mxCell>
        <mxCell id="w0B7XHgW6XZ4lFsPvZE_-54" value="" style="shape=line;html=1;strokeWidth=6;strokeColor=#ff0000;fontFamily=Helvetica;fontSize=11;fontColor=default;" parent="3" vertex="1">
          <mxGeometry x="140" y="440" width="80" height="10" as="geometry" />
        </mxCell>
        <mxCell id="w0B7XHgW6XZ4lFsPvZE_-55" value="" style="edgeStyle=orthogonalEdgeStyle;html=1;verticalAlign=bottom;endArrow=open;endSize=8;strokeColor=#ff0000;rounded=0;labelBackgroundColor=default;fontFamily=Helvetica;fontSize=11;fontColor=default;shape=connector;" parent="3" source="w0B7XHgW6XZ4lFsPvZE_-54" target="w0B7XHgW6XZ4lFsPvZE_-53" edge="1">
          <mxGeometry relative="1" as="geometry">
            <mxPoint x="180" y="460" as="targetPoint" />
          </mxGeometry>
        </mxCell>
        <mxCell id="9" value="" style="endArrow=open;strokeColor=#FF0000;endFill=1;rounded=0;entryX=0.5;entryY=0;entryDx=0;entryDy=0;exitX=0.5;exitY=1;exitDx=0;exitDy=0;edgeStyle=orthogonalEdgeStyle;" parent="1" source="7" target="21" edge="1">
          <mxGeometry relative="1" as="geometry" />
        </mxCell>
      </root>
    </mxGraphModel>
  </diagram>
</mxfile>
